# xmcd
#
# Track frame offsets:
#	182
#	10505
#	22000
#	34675
#	46900
#	63522
#	75437
#	93557
#	106727
#	118040
#	128547
#	140680
#	163777
#	178022
#	187720
#	198960
#	211105
#	221807
#	235795
#	251255
#
# Disc length: 3506 seconds
#
# Revision: 1
# Processed by: cddbd v1.5PL3 Copyright (c) Steve Scherf et al.
# Submitted via: CDex 1.50Beta5
#
DISCID=010db014
DTITLE=Various Artist - Love Ballade BEST HITS 20
DYEAR=1900
DGENRE=Easy Listening
TTITLE0=Pat Boon/Pat Boon - Love Letters In The Sand「砂に書いたラブレター」
TTITLE1=Paull and Paula/Paull and Paula - Hey Paula「ヘイポーラ」
TTITLE2=Andy Williams/Andy Williams - Moon River「ムーンリバー」
TTITLE3=Peter,Paul and Marry/Peter,Paul and Marry - Gone The Rainbow「虹と共に消えた恋」
TTITLE4=Richteous Brothers/Richteous Brothers - Unchaines Molody「アンチェインドメロディー」
TTITLE5=The Platters/The Platters - Only You「オンリーユー」
TTITLE6=Procol Harum/Procol Harum - A Whiter Shade  Of Pale「青い影」
TTITLE7=Percy Sledge/Percy Sledge - When A Man Loves A Woman「男が女を愛する時」
TTITLE8=Paul Anka/Paul Anka - You Are My Destiny「君はわが運命」
TTITLE9=Neil Sedaka/Neil Sedaka - The Diary「恋の日記」
TTITLE10=Connie Francis/Connie Francis - Where The Boys Are「ボーイハント」
TTITLE11=An Marguerite/An Marguerite - One Boy「ワンボーイ」
TTITLE12=Brenda Lee/Brenda Lee - The End Of The World「この世の果てまで」
TTITLE13=Elvis Presley/Elvis Presley - Don't Be Cruel「冷たくしないで」
TTITLE14=Paul Anka/Paul Anka - Crazy Love「クレイジーラブ」
TTITLE15=Bobby Vinton/Bobby Vinton - Mr. Lonely「ミスターロンリー」
TTITLE16=Bee Gees/The Bee Gees - Massachusetts「マサチューセッツ」
TTITLE17=Brothers Fore/Brothers Fore - Green Fields「グリーンフィールズ」
TTITLE18=Nat King Cole/Nat King Cole - Too Young「トゥヤング」
TTITLE19=Elvis Presley/Elvis Presley - Blue Hawaii「ブルーハワイ」
EXTD=
EXTT0=
EXTT1=
EXTT2=
EXTT3=
EXTT4=
EXTT5=
EXTT6=
EXTT7=
EXTT8=
EXTT9=
EXTT10=
EXTT11=
EXTT12=
EXTT13=
EXTT14=
EXTT15=
EXTT16=
EXTT17=
EXTT18=
EXTT19=
PLAYORDER=
